<?xml version="1.0" encoding="utf-8"?>
<!-- Generator: Adobe Illustrator 16.0.0, SVG Export Plug-In . SVG Version: 6.00 Build 0)  -->
<!DOCTYPE svg PUBLIC "-//W3C//DTD SVG 1.1//EN" "http://www.w3.org/Graphics/SVG/1.1/DTD/svg11.dtd">
<svg version="1.1" id="Layer_1" xmlns="http://www.w3.org/2000/svg" xmlns:xlink="http://www.w3.org/1999/xlink" x="0px" y="0px"
	 width="400px" height="400px" viewBox="0 0 400 400" enable-background="new 0 0 400 400" xml:space="preserve">
<g>
	<g>
		<path fill="none" d="M279.746,143.54c12.993,63.544-28.014,125.611-91.562,138.552c-63.566,13.02-125.603-27.986-138.564-91.552
			C36.625,126.986,77.619,64.941,141.193,51.967C204.738,38.985,266.788,79.979,279.746,143.54z"/>
		<path fill="#090909" d="M177.387,300.303c-68.265,6.563-130.098-39.188-143.842-106.489
			c-7.151-35.028-0.236-70.738,19.467-100.562c19.713-29.834,49.857-50.196,84.898-57.347c4.629-0.951,9.362-1.666,14.06-2.117
			c68.246-6.599,130.107,39.189,143.84,106.461c7.159,35.049,0.246,70.745-19.449,100.591
			c-19.734,29.832-49.865,50.188-84.905,57.346C186.811,299.131,182.079,299.832,177.387,300.303z M155.11,66.431
			c-3.545,0.351-7.125,0.883-10.648,1.597c-26.443,5.393-49.212,20.781-64.095,43.294c-14.875,22.51-20.099,49.478-14.692,75.94
			c10.372,50.801,57.034,85.352,108.57,80.391c3.545-0.352,7.13-0.875,10.65-1.576c26.445-5.432,49.202-20.801,64.084-43.314
			c14.883-22.54,20.088-49.499,14.722-75.947C253.296,96.021,206.626,61.457,155.11,66.431z"/>
	</g>
	<g>
		<line fill="none" x1="259.118" y1="246.502" x2="361.581" y2="350.463"/>
		<path fill="#090909" d="M363.146,366.773c-4.731,0.432-9.637-1.145-13.276-4.813L247.457,258
			c-6.349-6.443-6.283-16.863,0.162-23.199c6.458-6.363,16.837-6.268,23.2,0.174l102.438,103.961
			c6.336,6.445,6.269,16.838-0.176,23.201C370.304,364.889,366.773,366.422,363.146,366.773z"/>
	</g>
</g>
</svg>
