<?xml version="1.0" encoding="utf-8"?>
<!-- Generator: Adobe Illustrator 16.0.0, SVG Export Plug-In . SVG Version: 6.00 Build 0)  -->
<!DOCTYPE svg PUBLIC "-//W3C//DTD SVG 1.1//EN" "http://www.w3.org/Graphics/SVG/1.1/DTD/svg11.dtd">
<svg version="1.1" id="Layer_1" xmlns="http://www.w3.org/2000/svg" xmlns:xlink="http://www.w3.org/1999/xlink" x="0px" y="0px"
	 width="1312px" height="1166.012px" viewBox="0 0 1312 1166.012" enable-background="new 0 0 1312 1166.012" xml:space="preserve">
<g>
	
		<image overflow="visible" width="512" height="512" xlink:href="C8AB35B5.png"  transform="matrix(0.7499 0 0 0.7499 -4283.8208 -124.3789)">
	</image>
</g>
<g>
	
		<image overflow="visible" width="128" height="128" xlink:href="C8AB35B7.png"  transform="matrix(2.9996 0 0 2.9996 -2136.1948 -574.4346)">
	</image>
</g>
<g>
	
		<image overflow="visible" width="512" height="512" xlink:href="C8AB35B2.png"  transform="matrix(0.5761 0 0 0.5761 -3695.7036 -27.8486)">
	</image>
</g>
<g>
	
		<image overflow="visible" width="256" height="256" xlink:href="C8AB35B3.png"  transform="matrix(1.4345 0 0 1.4345 -3287.5825 1061.5669)">
	</image>
</g>
<g>
	
		<image overflow="visible" width="512" height="512" xlink:href="C8AB35BD.png"  transform="matrix(0.7032 0 0 0.7032 -3721.3208 382.6211)">
	</image>
</g>
<g>
	<path fill="#FFFFFF" stroke="#231F20" stroke-width="20" stroke-miterlimit="10" d="M-1343.756-205.798
		c0-94.406-76.531-170.938-170.938-170.938s-170.938,76.531-170.938,170.938H-1343.756z"/>
	<circle fill="#FFFFFF" stroke="#231F20" stroke-width="20" stroke-miterlimit="10" cx="-1514.693" cy="-468.447" r="90.673"/>
</g>
<path fill="#FFFFFF" stroke="#231F20" stroke-width="20" stroke-miterlimit="10" d="M-669.361,127.446c0,23.196-18.804,42-42,42
	h-299.952c-23.196,0-42-18.804-42-42v-19.279c0-23.196,18.804-42,42-42h299.952c23.196,0,42,18.804,42,42V127.446z"/>
<g>
	<path fill="#FFFFFF" stroke="#231F20" stroke-width="25" stroke-miterlimit="10" d="M-3201.685-102.899
		c0,26.316-9.879,50.325-26.128,68.522C-3246.658-13.28-3274.07,0-3304.583,0c-56.829,0-102.899-46.069-102.899-102.899
		c0-56.829,46.07-102.898,102.899-102.898S-3201.685-159.729-3201.685-102.899z"/>
	
		<line fill="#FFFFFF" stroke="#231F20" stroke-width="33" stroke-linecap="round" stroke-miterlimit="10" x1="-3129.115" y1="67.597" x2="-3225.571" y2="-27.004"/>
</g>
<g>
	<g>
		<path fill="none" d="M-2275.62,3467.098c0-18.829-15.264-34.094-34.094-34.094c-18.829,0-34.094,15.265-34.094,34.094H-2275.62z"
			/>
		<path fill="#070707" d="M-2273.625,3469.093h-72.176v-1.995c0-19.898,16.189-36.088,36.088-36.088s36.088,16.189,36.088,36.088
			V3469.093z M-2341.75,3465.104h64.074c-1.033-16.773-15.008-30.105-32.037-30.105S-2340.717,3448.331-2341.75,3465.104z"/>
	</g>
	<g>
		<circle fill="none" cx="-2309.713" cy="3414.713" r="18.084"/>
		<path fill="#070707" d="M-2309.713,3434.792c-11.072,0-20.079-9.007-20.079-20.078c0-11.072,9.007-20.08,20.079-20.08
			s20.079,9.008,20.079,20.08C-2289.634,3425.785-2298.641,3434.792-2309.713,3434.792z M-2309.713,3398.623
			c-8.872,0-16.09,7.218-16.09,16.091c0,8.871,7.218,16.09,16.09,16.09s16.09-7.219,16.09-16.09
			C-2293.624,3405.84-2300.841,3398.623-2309.713,3398.623z"/>
	</g>
</g>
<g>
	<g>
		<path fill="none" d="M-2382.233,3470.026c0-18.829-15.264-34.094-34.094-34.094c-18.829,0-34.094,15.265-34.094,34.094H-2382.233z
			"/>
		<path fill="#FFFFFF" d="M-2380.239,3472.021h-72.176v-1.995c0-19.898,16.189-36.088,36.088-36.088s36.088,16.189,36.088,36.088
			V3472.021z M-2448.364,3468.032h64.074c-1.033-16.773-15.008-30.105-32.037-30.105S-2447.331,3451.258-2448.364,3468.032z"/>
	</g>
	<g>
		<circle fill="none" cx="-2416.327" cy="3417.641" r="18.084"/>
		<path fill="#FFFFFF" d="M-2416.327,3437.719c-11.072,0-20.079-9.007-20.079-20.078c0-11.072,9.007-20.08,20.079-20.08
			s20.079,9.008,20.079,20.08C-2396.248,3428.712-2405.255,3437.719-2416.327,3437.719z M-2416.327,3401.55
			c-8.872,0-16.09,7.218-16.09,16.091c0,8.871,7.218,16.09,16.09,16.09s16.09-7.219,16.09-16.09
			C-2400.237,3408.768-2407.455,3401.55-2416.327,3401.55z"/>
	</g>
</g>
<g>
	<g>
		<path fill="#050505" d="M692.502,2935.792c0-18.829-15.264-34.094-34.094-34.094c-18.829,0-34.094,15.265-34.094,34.094H692.502z"
			/>
		<path fill="#050505" d="M694.496,2937.787H622.32v-1.995c0-19.898,16.189-36.088,36.088-36.088s36.088,16.189,36.088,36.088
			V2937.787z M626.371,2933.797h64.074c-1.033-16.773-15.008-30.105-32.037-30.105S627.404,2917.024,626.371,2933.797z"/>
	</g>
	<g>
		<circle fill="#050505" cx="658.409" cy="2883.407" r="18.084"/>
		<path fill="#050505" d="M658.408,2903.485c-11.072,0-20.079-9.007-20.079-20.078c0-11.072,9.007-20.08,20.079-20.08
			s20.079,9.008,20.079,20.08C678.487,2894.478,669.48,2903.485,658.408,2903.485z M658.408,2867.316
			c-8.872,0-16.09,7.218-16.09,16.091c0,8.871,7.218,16.09,16.09,16.09s16.09-7.219,16.09-16.09
			C674.498,2874.534,667.28,2867.316,658.408,2867.316z"/>
	</g>
</g>
<g>
	<g>
		<path fill="#FFFDFE" d="M1266.504,3090.249c0-18.829-15.264-34.094-34.094-34.094c-18.829,0-34.094,15.265-34.094,34.094H1266.504
			z"/>
		<path fill="#FFFDFE" d="M1268.498,3092.244h-72.176v-1.995c0-19.898,16.189-36.088,36.088-36.088s36.088,16.189,36.088,36.088
			V3092.244z M1200.373,3088.254h64.074c-1.033-16.773-15.008-30.105-32.037-30.105S1201.406,3071.481,1200.373,3088.254z"/>
	</g>
	<g>
		<circle fill="#FFFDFE" cx="1232.411" cy="3037.864" r="18.084"/>
		<path fill="#FFFDFE" d="M1232.41,3057.942c-11.072,0-20.079-9.007-20.079-20.078c0-11.072,9.007-20.08,20.079-20.08
			s20.079,9.008,20.079,20.08C1252.489,3048.935,1243.482,3057.942,1232.41,3057.942z M1232.41,3021.773
			c-8.872,0-16.09,7.218-16.09,16.091c0,8.871,7.218,16.09,16.09,16.09s16.09-7.219,16.09-16.09
			C1248.5,3028.991,1241.282,3021.773,1232.41,3021.773z"/>
	</g>
</g>
<path fill="#FFFFFF" stroke="#231F20" stroke-width="8" stroke-miterlimit="10" d="M-989.763,379.268
	c0,45.275-39.919,81.979-89.161,81.979h-454.66c-49.242,0-89.161-36.704-89.161-81.979l0,0c0-45.276,39.918-81.979,89.161-81.979
	h454.66C-1029.682,297.289-989.763,333.992-989.763,379.268L-989.763,379.268z"/>
<g>
	<path fill="#FFFFFF" d="M-4475.328,12.727c0,19.1-16.84,34.583-37.613,34.583h-191.801c-20.773,0-37.613-15.484-37.613-34.583l0,0
		c0-19.1,16.84-34.583,37.613-34.583h191.801C-4492.168-21.856-4475.328-6.373-4475.328,12.727L-4475.328,12.727z"/>
	<path fill="#231F20" d="M-4512.941,51.107h-191.801c-22.833,0-41.41-17.217-41.41-38.38c0-21.163,18.576-38.38,41.41-38.38h191.801
		c22.833,0,41.41,17.217,41.41,38.38C-4471.531,33.89-4490.107,51.107-4512.941,51.107z M-4704.742-18.06
		c-18.646,0-33.816,13.811-33.816,30.787c0,16.976,15.17,30.787,33.816,30.787h191.801c18.646,0,33.816-13.811,33.816-30.787
		c0-16.976-15.17-30.787-33.816-30.787H-4704.742z"/>
</g>
<g>
	<g>
		<g>
			<path fill="#FFFFFF" d="M-4568.692,270.859c0,3.813-1.431,7.291-3.786,9.928c-2.73,3.057-6.702,4.98-11.123,4.98
				c-8.233,0-14.908-6.675-14.908-14.908s6.675-14.908,14.908-14.908S-4568.692,262.625-4568.692,270.859z"/>
		</g>
		<g>
			<path fill="#231F20" d="M-4583.6,287.578c-9.219,0-16.719-7.5-16.719-16.719c0-9.219,7.5-16.719,16.719-16.719
				s16.719,7.5,16.719,16.719c0,4.114-1.508,8.068-4.246,11.134C-4574.297,285.542-4578.844,287.578-4583.6,287.578z
				 M-4583.6,257.762c-7.222,0-13.097,5.875-13.097,13.097s5.875,13.097,13.097,13.097c3.726,0,7.288-1.595,9.772-4.376
				c2.145-2.401,3.325-5.499,3.325-8.721C-4570.503,263.637-4576.378,257.762-4583.6,257.762z"/>
		</g>
	</g>
	<g>
		<g>
			<line fill="#FFFFFF" x1="-4558.178" y1="295.561" x2="-4572.153" y2="281.854"/>
		</g>
		<g>
			<path fill="#231F20" d="M-4558.178,297.951c-0.604,0-1.208-0.228-1.674-0.684l-13.975-13.706
				c-0.942-0.925-0.957-2.438-0.033-3.381c0.925-0.942,2.438-0.957,3.38-0.033l13.975,13.706c0.942,0.924,0.957,2.438,0.033,3.381
				C-4556.939,297.712-4557.559,297.951-4558.178,297.951z"/>
		</g>
	</g>
</g>
<path fill="#FFFFFF" stroke="#231F20" stroke-width="8" stroke-miterlimit="10" d="M-1027.265,727.636
	c0,45.275-39.919,81.979-89.161,81.979h-454.66c-49.242,0-89.161-36.704-89.161-81.979l0,0c0-45.276,39.918-81.979,89.161-81.979
	h454.66C-1067.184,645.657-1027.265,682.36-1027.265,727.636L-1027.265,727.636z"/>
<g>
	<g>
		<path fill="#FFFFFF" d="M-1095.948,714.965c0,9.038-3.393,17.283-8.974,23.533c-6.473,7.246-15.887,11.807-26.366,11.807
			c-19.518,0-35.34-15.822-35.34-35.34s15.822-35.339,35.34-35.339C-1111.771,679.625-1095.948,695.447-1095.948,714.965z"/>
		<path fill="#231F20" d="M-1131.288,754.597c-21.854,0-39.633-17.779-39.633-39.632c0-21.853,17.779-39.632,39.633-39.632
			c21.853,0,39.632,17.779,39.632,39.632c0,9.752-3.575,19.125-10.064,26.392C-1109.235,749.771-1120.013,754.597-1131.288,754.597z
			 M-1131.288,683.918c-17.12,0-31.047,13.927-31.047,31.046s13.927,31.047,31.047,31.047c8.832,0,17.276-3.781,23.164-10.374
			c5.083-5.692,7.883-13.034,7.883-20.673C-1100.241,697.846-1114.169,683.918-1131.288,683.918z"/>
	</g>
	<g>
		<line fill="#FFFFFF" x1="-1071.025" y1="773.52" x2="-1104.152" y2="741.03"/>
		<path fill="#231F20" d="M-1071.025,779.186c-1.432,0-2.865-0.539-3.968-1.621l-33.127-32.49c-2.234-2.191-2.269-5.779-0.077-8.014
			c2.191-2.234,5.779-2.269,8.013-0.078l33.127,32.489c2.234,2.192,2.269,5.78,0.078,8.014
			C-1068.089,778.619-1069.557,779.186-1071.025,779.186z"/>
	</g>
</g>
<path fill="none" stroke="#0F0F0F" stroke-width="8" stroke-miterlimit="10" d="M-1131.286,1247.991
	c0,45.275-39.919,81.979-89.161,81.979h-454.66c-49.242,0-89.161-36.704-89.161-81.979l0,0c0-45.275,39.918-81.979,89.161-81.979
	h454.66C-1171.205,1166.012-1131.286,1202.715-1131.286,1247.991L-1131.286,1247.991z"/>
<g>
	<g>
		<path fill="#FFFFFF" d="M-1199.969,1235.321c0,9.037-3.393,17.283-8.974,23.532c-6.473,7.246-15.887,11.808-26.366,11.808
			c-19.518,0-35.34-15.822-35.34-35.34s15.822-35.34,35.34-35.34C-1215.792,1199.981-1199.969,1215.803-1199.969,1235.321z"/>
		<path fill="#231F20" d="M-1235.309,1274.953c-21.854,0-39.633-17.778-39.633-39.632s17.779-39.633,39.633-39.633
			c21.853,0,39.632,17.779,39.632,39.633c0,9.752-3.575,19.125-10.064,26.392
			C-1213.256,1270.127-1224.034,1274.953-1235.309,1274.953z M-1235.309,1204.274c-17.12,0-31.047,13.928-31.047,31.047
			s13.927,31.047,31.047,31.047c8.832,0,17.276-3.781,23.164-10.374c5.083-5.692,7.883-13.034,7.883-20.673
			C-1204.262,1218.202-1218.19,1204.274-1235.309,1204.274z"/>
	</g>
	<g>
		<line fill="#FFFFFF" x1="-1175.046" y1="1293.875" x2="-1208.173" y2="1261.385"/>
		<path fill="#231F20" d="M-1175.046,1299.542c-1.432,0-2.865-0.539-3.968-1.621l-33.127-32.489
			c-2.234-2.191-2.269-5.778-0.077-8.014c2.191-2.233,5.779-2.269,8.013-0.077l33.127,32.488c2.234,2.192,2.269,5.78,0.078,8.015
			C-1172.11,1298.975-1173.578,1299.542-1175.046,1299.542z"/>
	</g>
</g>
<g>
	<line fill="#FFFFFF" x1="-4497.064" y1="191.515" x2="-4530.191" y2="159.025"/>
	<path fill="#231F20" d="M-4497.064,197.181c-1.432,0-2.865-0.539-3.968-1.621l-33.127-32.49c-2.234-2.191-2.269-5.779-0.077-8.014
		c2.191-2.234,5.779-2.269,8.013-0.078l33.127,32.489c2.234,2.192,2.269,5.78,0.078,8.014
		C-4494.128,196.614-4495.596,197.181-4497.064,197.181z"/>
</g>
<circle fill="#FFFFFF" stroke="#231F20" stroke-width="9" stroke-miterlimit="10" cx="-4560" cy="133.017" r="36.589"/>
<g>
	<line fill="#FFFFFF" x1="-4784.74" y1="207.83" x2="-4820.247" y2="177.958"/>
	<path fill="#231F20" d="M-4784.309,213.479c-1.427,0.109-2.897-0.318-4.08-1.313l-35.506-29.87
		c-2.395-2.016-2.703-5.59-0.688-7.985c2.015-2.395,5.589-2.702,7.984-0.688l35.507,29.87c2.395,2.015,2.703,5.59,0.688,7.985
		C-4781.424,212.69-4782.844,213.368-4784.309,213.479z"/>
</g>
<circle fill="#FFFFFF" stroke="#231F20" stroke-width="7" stroke-miterlimit="10" cx="-4851.951" cy="154.298" r="36.589"/>
<circle fill="#FFFFFF" stroke="#231F20" stroke-width="7" stroke-miterlimit="10" cx="-4730.192" cy="254.141" r="36.589"/>
<g>
	<g>
		<g>
			<line fill="#FFFFFF" x1="-615.932" y1="-31.738" x2="-638.918" y2="-54.281"/>
		</g>
		<g>
			<path fill="#231F20" d="M-615.932-27.806c-0.993,0-1.987-0.374-2.753-1.125l-22.986-22.543c-1.55-1.52-1.574-4.009-0.054-5.56
				c1.521-1.55,4.01-1.574,5.56-0.054l22.986,22.543c1.55,1.521,1.575,4.011,0.054,5.561
				C-613.895-28.2-614.913-27.806-615.932-27.806z"/>
		</g>
	</g>
	<g>
		<circle fill="#FFFFFF" cx="-659.601" cy="-72.329" r="25.388"/>
		<path fill="#231F20" d="M-659.602-43.819c-15.72,0-28.51-12.789-28.51-28.51s12.79-28.511,28.51-28.511
			c15.721,0,28.511,12.79,28.511,28.511S-643.881-43.819-659.602-43.819z M-659.602-94.595c-12.277,0-22.265,9.989-22.265,22.266
			c0,12.277,9.988,22.265,22.265,22.265c12.277,0,22.266-9.988,22.266-22.265C-637.335-84.606-647.324-94.595-659.602-94.595z"/>
	</g>
</g>
<line fill="#FFFFFF" stroke="#231F20" stroke-width="10" stroke-linecap="round" stroke-miterlimit="10" x1="-4700.343" y1="281.903" x2="-4670.243" y2="317.213"/>
<g>
	<circle fill="#FFFFFF" stroke="#231F20" stroke-width="6" stroke-miterlimit="10" cx="-4483.318" cy="265.563" r="22.102"/>
	
		<line fill="#FFFFFF" stroke="#231F20" stroke-width="8" stroke-linecap="round" stroke-miterlimit="10" x1="-4467.548" y1="282.615" x2="-4444.73" y2="305.845"/>
</g>
<g>
	<circle fill="#FFFFFF" stroke="#231F20" stroke-width="4" stroke-miterlimit="10" cx="-4604.151" cy="317.466" r="17.906"/>
	
		<line fill="#FFFFFF" stroke="#231F20" stroke-width="4" stroke-linecap="round" stroke-miterlimit="10" x1="-4590.98" y1="330.906" x2="-4576.958" y2="348.184"/>
</g>
<g>
	<path fill="#050505" d="M762.6,2887.337c1.182,13.272-8.619,24.989-21.894,26.171c-13.271,1.183-24.989-8.62-26.17-21.891
		c-1.181-13.275,8.618-24.99,21.893-26.172C749.7,2864.263,761.418,2874.065,762.6,2887.337z"/>
	<path fill="#050505" d="M738.107,2915.624c-13.396-0.221-24.395-10.463-25.585-23.828c-0.619-6.957,1.509-13.738,5.989-19.096
		c4.48-5.358,10.78-8.649,17.738-9.268c0.922-0.083,1.855-0.117,2.777-0.102c13.396,0.221,24.395,10.465,25.586,23.826
		c0.619,6.958-1.508,13.74-5.989,19.097c-4.481,5.358-10.781,8.649-17.739,9.269
		C739.963,2915.604,739.029,2915.637,738.107,2915.624z M738.961,2867.373c-0.78-0.013-1.571,0.017-2.353,0.085
		c-5.883,0.523-11.208,3.307-14.996,7.836c-3.788,4.528-5.587,10.262-5.063,16.145c1.006,11.298,10.303,19.957,21.626,20.144
		c0.779,0.013,1.571-0.017,2.353-0.086c5.883-0.523,11.207-3.306,14.996-7.835c3.787-4.529,5.586-10.263,5.063-16.145
		C759.58,2876.218,750.283,2867.558,738.961,2867.373z"/>
</g>
<g>
	
		<line fill="#FFFFFF" stroke="#050505" stroke-width="6" stroke-miterlimit="10" x1="755.141" y1="2913.192" x2="775.418" y2="2931.897"/>
	<path fill="#070707" stroke="#050505" stroke-width="6" stroke-miterlimit="10" d="M775.658,2933.77
		c-0.547,0.09-1.117-0.061-1.545-0.457l-20.279-18.703c-0.754-0.699-0.783-1.896-0.063-2.68c0.721-0.782,1.918-0.852,2.674-0.154
		l20.277,18.705c0.756,0.696,0.783,1.896,0.063,2.678C776.473,2933.497,776.072,2933.702,775.658,2933.77z"/>
</g>
<g>
	<g>
		<path fill="none" stroke="#050505" stroke-miterlimit="10" d="M-2203.837,3422.696c3.785,12.776-3.504,26.2-16.282,29.985
			c-12.775,3.785-26.201-3.507-29.983-16.28c-3.784-12.781,3.504-26.202,16.283-29.986
			C-2221.045,3402.63-2207.62,3409.919-2203.837,3422.696z"/>
		<path fill="#050505" stroke="#050505" stroke-miterlimit="10" d="M-2222.249,3455.268c-13.175,2.435-25.981-5.43-29.794-18.296
			c-1.982-6.696-1.238-13.766,2.094-19.902c3.332-6.139,8.856-10.611,15.555-12.594c0.888-0.265,1.796-0.482,2.702-0.649
			c13.176-2.434,25.982,5.432,29.794,18.294c1.984,6.698,1.24,13.767-2.094,19.904c-3.332,6.139-8.856,10.611-15.555,12.595
			C-2220.434,3454.882-2221.342,3455.1-2222.249,3455.268z M-2230.958,3407.802c-0.767,0.143-1.537,0.327-2.29,0.549
			c-5.662,1.677-10.332,5.458-13.148,10.647c-2.817,5.188-3.446,11.164-1.77,16.826c3.221,10.877,14.047,17.525,25.184,15.468
			c0.766-0.141,1.536-0.327,2.288-0.55c5.664-1.676,10.333-5.457,13.151-10.646c2.815-5.189,3.444-11.166,1.768-16.828
			C-2208.996,3412.393-2219.822,3405.744-2230.958,3407.802z"/>
	</g>
	<g>
		
			<line fill="#FFFFFF" stroke="#050505" stroke-width="3" stroke-miterlimit="10" x1="-2203.61" y1="3442.4" x2="-2180.033" y2="3456.723"/>
		<path fill="#070707" stroke="#050505" stroke-width="3" stroke-miterlimit="10" d="M-2179.426,3458.511
			c-0.52,0.196-1.107,0.161-1.604-0.143l-23.58-14.321c-0.877-0.535-1.143-1.704-0.591-2.614c0.552-0.909,1.712-1.214,2.59-0.681
			l23.578,14.325c0.879,0.532,1.143,1.704,0.591,2.612C-2178.682,3458.083-2179.034,3458.363-2179.426,3458.511z"/>
	</g>
</g>
<g>
	<g>
		<path fill="none" d="M1237.319,2931.641c0-18.829-15.264-34.094-34.094-34.094c-18.829,0-34.094,15.265-34.094,34.094H1237.319z"
			/>
		<path fill="#FFFFFF" d="M1239.313,2933.636h-72.176v-1.995c0-19.898,16.189-36.088,36.088-36.088s36.088,16.189,36.088,36.088
			V2933.636z M1171.188,2929.647h64.074c-1.033-16.773-15.008-30.105-32.037-30.105S1172.222,2912.874,1171.188,2929.647z"/>
	</g>
	<g>
		<circle fill="#FFFFFF" cx="1203.226" cy="2879.256" r="18.084"/>
		<path fill="#FFFFFF" d="M1203.226,2899.334c-11.072,0-20.079-9.007-20.079-20.078c0-11.072,9.007-20.08,20.079-20.08
			s20.079,9.008,20.079,20.08C1223.305,2890.328,1214.298,2899.334,1203.226,2899.334z M1203.226,2863.166
			c-8.872,0-16.09,7.218-16.09,16.091c0,8.871,7.218,16.09,16.09,16.09s16.09-7.219,16.09-16.09
			C1219.315,2870.383,1212.098,2863.166,1203.226,2863.166z"/>
	</g>
</g>
<g>
	<g>
		<path fill="none" d="M-2086.928,3421.234c3.785,12.776-3.504,26.2-16.282,29.985c-12.775,3.785-26.201-3.507-29.983-16.28
			c-3.784-12.781,3.504-26.202,16.283-29.986C-2104.136,3401.168-2090.71,3408.458-2086.928,3421.234z"/>
		<path fill="#FFFFFF" d="M-2105.339,3453.806c-13.175,2.435-25.981-5.43-29.794-18.296c-1.982-6.696-1.238-13.766,2.094-19.902
			c3.332-6.139,8.856-10.611,15.555-12.594c0.888-0.265,1.796-0.482,2.702-0.649c13.176-2.434,25.982,5.432,29.794,18.294
			c1.984,6.698,1.24,13.767-2.094,19.904c-3.332,6.139-8.856,10.611-15.555,12.595
			C-2103.524,3453.42-2104.433,3453.638-2105.339,3453.806z M-2114.048,3406.34c-0.767,0.143-1.537,0.327-2.29,0.549
			c-5.662,1.677-10.332,5.458-13.148,10.647c-2.817,5.188-3.446,11.164-1.77,16.826c3.221,10.877,14.047,17.525,25.184,15.468
			c0.766-0.141,1.536-0.327,2.288-0.55c5.664-1.676,10.333-5.457,13.151-10.646c2.815-5.189,3.444-11.166,1.768-16.828
			C-2092.086,3410.931-2102.912,3404.282-2114.048,3406.34z"/>
	</g>
	<g>
		<line fill="#FFFFFF" x1="-2086.7" y1="3440.938" x2="-2063.123" y2="3455.261"/>
		<path fill="#FFFFFF" d="M-2062.517,3457.049c-0.52,0.196-1.107,0.161-1.604-0.143l-23.58-14.321
			c-0.877-0.535-1.143-1.704-0.591-2.614c0.552-0.909,1.712-1.214,2.59-0.681l23.578,14.325c0.879,0.532,1.143,1.704,0.591,2.612
			C-2061.772,3456.621-2062.124,3456.901-2062.517,3457.049z"/>
	</g>
</g>
<g>
	<g>
		<circle fill="none" cx="1701.05" cy="3006.273" r="17.403"/>
		<path fill="#070707" d="M1700.717,3025.132c-9.662-0.159-17.596-7.547-18.454-17.188c-0.446-5.018,1.088-9.909,4.319-13.773
			c3.232-3.865,7.776-6.238,12.795-6.685c0.665-0.06,1.338-0.084,2.003-0.073c9.664,0.159,17.597,7.548,18.456,17.186
			c0.445,5.02-1.088,9.911-4.32,13.775s-7.777,6.237-12.796,6.685C1702.055,3025.118,1701.382,3025.142,1700.717,3025.132z
			 M1701.332,2990.33c-0.563-0.01-1.133,0.012-1.696,0.061c-4.243,0.378-8.085,2.386-10.816,5.651
			c-2.732,3.268-4.03,7.403-3.652,11.646c0.726,8.149,7.431,14.396,15.599,14.53c0.563,0.009,1.133-0.013,1.696-0.063
			c4.243-0.377,8.084-2.384,10.817-5.651c2.731-3.267,4.028-7.402,3.651-11.645
			C1716.205,2996.709,1709.499,2990.463,1701.332,2990.33z"/>
	</g>
	<g>
		<line fill="#FFFFFF" x1="1713.003" y1="3019.152" x2="1727.629" y2="3032.643"/>
		<path fill="#070707" d="M1727.802,3033.995c-0.395,0.065-0.806-0.043-1.113-0.329l-14.628-13.491
			c-0.544-0.504-0.564-1.368-0.045-1.933s1.383-0.614,1.929-0.111l14.626,13.492c0.545,0.502,0.565,1.368,0.045,1.931
			C1728.39,3033.798,1728.102,3033.946,1727.802,3033.995z"/>
	</g>
</g>
<g>
	<g>
		<circle fill="none" cx="1655.704" cy="2899.047" r="17.403"/>
		<path fill="#070707" d="M1655.371,2917.906c-9.662-0.159-17.596-7.547-18.454-17.188c-0.446-5.018,1.088-9.909,4.319-13.773
			c3.232-3.865,7.776-6.238,12.795-6.685c0.665-0.06,1.338-0.084,2.003-0.073c9.664,0.159,17.597,7.548,18.456,17.186
			c0.445,5.02-1.088,9.911-4.32,13.775s-7.777,6.237-12.796,6.685C1656.709,2917.891,1656.036,2917.916,1655.371,2917.906z
			 M1655.986,2883.103c-0.563-0.01-1.133,0.012-1.696,0.061c-4.243,0.378-8.085,2.386-10.816,5.651
			c-2.732,3.268-4.03,7.403-3.652,11.646c0.726,8.149,7.431,14.396,15.599,14.53c0.563,0.009,1.133-0.013,1.696-0.063
			c4.243-0.377,8.084-2.384,10.817-5.651c2.731-3.267,4.028-7.402,3.651-11.645
			C1670.859,2889.483,1664.153,2883.237,1655.986,2883.103z"/>
	</g>
	<g>
		<line fill="#FFFFFF" x1="1667.657" y1="2911.925" x2="1682.283" y2="2925.417"/>
		<path fill="#070707" d="M1682.456,2926.768c-0.395,0.065-0.806-0.043-1.113-0.329l-14.628-13.491
			c-0.544-0.504-0.564-1.368-0.045-1.933s1.383-0.614,1.929-0.111l14.626,13.492c0.545,0.502,0.565,1.368,0.045,1.931
			C1683.044,2926.572,1682.756,2926.719,1682.456,2926.768z"/>
	</g>
</g>
<g>
	<g>
		<circle fill="#FFFFFF" cx="-4536.351" cy="493.5" r="25.276"/>
		<path fill="#231F20" d="M-4533.615,522.177c-14.693,1.418-28.002-8.433-30.959-22.914c-1.54-7.54-0.05-15.225,4.189-21.645
			c4.243-6.42,10.731-10.803,18.271-12.342c0.998-0.204,2.017-0.356,3.026-0.455c14.692-1.418,28.002,8.433,30.96,22.914
			c1.54,7.54,0.05,15.227-4.191,21.646c-4.242,6.42-10.729,10.802-18.271,12.343
			C-4531.587,521.926-4532.605,522.08-4533.615,522.177z M-4538.41,471.847c-0.763,0.075-1.535,0.19-2.292,0.345
			c-5.692,1.162-10.59,4.471-13.793,9.317c-3.203,4.846-4.325,10.65-3.163,16.343c2.232,10.933,12.276,18.371,23.365,17.3
			c0.764-0.074,1.535-0.19,2.292-0.345c5.693-1.162,10.592-4.471,13.794-9.316c3.203-4.847,4.326-10.651,3.164-16.343
			C-4517.276,478.214-4527.322,470.777-4538.41,471.847z"/>
	</g>
	<g>
		<line fill="#FFFFFF" x1="-4516.023" y1="510.597" x2="-4493.975" y2="532.972"/>
		<path fill="#231F20" d="M-4493.635,536.484c-1.022,0.098-2.078-0.248-2.854-1.037l-22.046-22.374
			c-1.368-1.388-1.352-3.622,0.037-4.99c1.387-1.367,3.623-1.352,4.99,0.037l22.046,22.373c1.368,1.39,1.352,3.624-0.036,4.991
			C-4492.099,536.077-4492.856,536.409-4493.635,536.484z"/>
	</g>
</g>
<g>
	<path fill="#0F0F0F" d="M-1882.729,3782.874h-454.66c-51.369,0-93.161-38.57-93.161-85.979c0-47.408,41.792-85.979,93.161-85.979
		h454.66c51.369,0,93.16,38.57,93.16,85.979C-1789.569,3744.303-1831.36,3782.874-1882.729,3782.874z M-2337.39,3618.916
		c-46.958,0-85.161,34.981-85.161,77.979c0,42.998,38.203,77.979,85.161,77.979h454.66c46.957,0,85.16-34.981,85.16-77.979
		c0-42.997-38.203-77.979-85.16-77.979H-2337.39z"/>
</g>
<g>
	<g>
		<path fill="none" d="M912.879,445.554c37.609,184.114-81.195,363.918-265.328,401.471
			c-184.163,37.63-363.917-81.175-401.5-265.308c-37.63-184.152,81.147-363.918,265.338-401.528
			C695.521,142.596,875.296,261.382,912.879,445.554z"/>
		<path fill="#070707" d="M616.288,899.731c-197.807,19.096-377.002-113.549-416.806-308.505
			c-20.729-101.509-0.677-204.987,56.407-291.42c57.132-86.433,144.482-145.439,245.981-166.159
			c13.441-2.744,27.164-4.812,40.752-6.126c197.798-19.096,377.001,113.529,416.815,308.505
			c20.738,101.527,0.678,204.987-56.416,291.42c-57.133,86.452-144.473,145.42-245.981,166.159
			C643.578,896.348,629.886,898.417,616.288,899.731z M551.744,222.108c-10.281,1.025-20.661,2.571-30.846,4.639
			c-76.634,15.636-142.609,60.206-185.738,125.455c-43.1,65.231-58.214,143.372-42.578,220.024
			c30.054,147.178,165.269,247.334,314.594,232.936c10.271-1.025,20.66-2.59,30.846-4.658
			c76.635-15.656,142.598-60.187,185.729-125.436c43.109-65.25,58.223-143.392,42.588-220.024
			C836.264,307.845,701.02,207.71,551.744,222.108z"/>
	</g>
	<g>
		<line fill="#FFFFFF" x1="853.137" y1="743.815" x2="1149.988" y2="1045.073"/>
		<path fill="#070707" d="M1154.568,1092.368c-13.762,1.295-27.986-3.344-38.443-13.975L819.313,777.175
			c-18.398-18.709-18.205-48.783,0.484-67.182c18.67-18.42,48.783-18.207,67.191,0.482l296.842,301.238
			c18.381,18.689,18.168,48.783-0.502,67.182C1175.248,1086.86,1165.043,1091.342,1154.568,1092.368z"/>
	</g>
</g>
<g>
	<g>
		<path fill="none" d="M925.435,3068.595c0,19.1-16.841,34.584-37.613,34.584H696.021c-20.772,0-37.612-15.484-37.612-34.584l0,0
			c0-19.1,16.84-34.582,37.612-34.582h191.801C908.594,3034.013,925.435,3049.496,925.435,3068.595L925.435,3068.595z"/>
		<path fill="#070707" d="M887.821,3106.976H696.021c-22.833,0-41.409-17.217-41.409-38.381c0-21.162,18.576-38.379,41.409-38.379
			h191.801c22.833,0,41.409,17.217,41.409,38.379C929.23,3089.759,910.654,3106.976,887.821,3106.976z M696.021,3037.809
			c-18.646,0-33.816,13.812-33.816,30.786c0,16.977,15.17,30.787,33.816,30.787h191.801c18.646,0,33.816-13.811,33.816-30.787
			c0-16.975-15.17-30.786-33.816-30.786H696.021z"/>
	</g>
	<g>
		<g>
			<circle fill="none" cx="870.996" cy="3063.073" r="16.119"/>
			<path fill="#070707" d="M872.74,3081.362c-9.37,0.905-17.858-5.379-19.744-14.613c-0.981-4.809-0.032-9.71,2.672-13.805
				c2.706-4.094,6.845-6.889,11.652-7.87c0.637-0.13,1.286-0.228,1.931-0.29c9.369-0.904,17.857,5.377,19.744,14.613
				c0.982,4.809,0.031,9.71-2.673,13.805c-2.706,4.095-6.844,6.889-11.651,7.87C874.033,3081.202,873.384,3081.3,872.74,3081.362z
				 M869.683,3049.264c-0.487,0.049-0.979,0.121-1.461,0.22c-3.63,0.74-6.756,2.852-8.799,5.942
				c-2.041,3.09-2.757,6.791-2.017,10.422c1.424,6.973,7.829,11.717,14.902,11.034c0.486-0.048,0.979-0.122,1.461-0.22
				c3.63-0.742,6.755-2.852,8.798-5.942c2.042-3.091,2.758-6.792,2.018-10.423C883.16,3053.325,876.754,3048.582,869.683,3049.264z"
				/>
		</g>
		<g>
			<line fill="#FFFFFF" x1="883.96" y1="3073.977" x2="898.021" y2="3088.247"/>
			<path fill="#070707" d="M898.238,3090.487c-0.652,0.062-1.326-0.158-1.821-0.662l-14.06-14.268
				c-0.872-0.887-0.862-2.311,0.022-3.183s2.311-0.862,3.184,0.022l14.061,14.27c0.871,0.886,0.86,2.311-0.023,3.183
				C899.218,3090.226,898.734,3090.439,898.238,3090.487z"/>
		</g>
	</g>
</g>
<circle fill="#FFFFFF" stroke="#231F20" stroke-width="7" stroke-miterlimit="10" cx="-4675.919" cy="177.96" r="34.698"/>
<g>
	
		<line fill="#FFFFFF" stroke="#231F20" stroke-width="10" stroke-linecap="round" stroke-miterlimit="10" x1="-4450.18" y1="111.156" x2="-4420.079" y2="146.466"/>
	<circle fill="#FFFFFF" stroke="#231F20" stroke-width="7" stroke-miterlimit="10" cx="-4477.125" cy="88.658" r="33.029"/>
</g>
<path fill="none" stroke="#FFFFFF" stroke-width="9" stroke-linecap="round" stroke-linejoin="round" stroke-miterlimit="10" d="
	M2154.238,391.521l1-251h235v276c0,0,4.033,67.654-65,70c0,0-86,1-78-95h-202c0,0-15,76.001,61,95l0,0l219,0"/>
<path fill="none" stroke="#FFFFFF" stroke-width="9" stroke-linecap="round" stroke-linejoin="round" stroke-miterlimit="10" d="
	M2576,408.521l1-251h235v276c0,0,4.033,67.654-65,70c0,0-86,1-78-95h-202c0,0-15,76.001,61,95l0,0l219,0"/>
<text transform="matrix(0.98 0 0 1 -2920.3413 583.4639)" font-family="'ArialRoundedMTBold'" font-size="210.2626">$</text>
<g>
	<path fill="none" stroke="#FFFFFF" stroke-width="9" stroke-linecap="round" stroke-miterlimit="10" d="M2307.891,236.691
		c0,0-2.5-28.25-35.75-29.5c0,0-37.75-3-38,30.75c0,0-2.75,29,36.875,35.5c0,0,43.125,7.25,41.875,35c0,0-2.5,37-42.25,36
		c0,0-41.25-3.75-41.25-35.25"/>
	
		<line fill="none" stroke="#FFFFFF" stroke-width="9" stroke-linecap="round" stroke-miterlimit="10" x1="2271.154" y1="185.104" x2="2271.154" y2="366.104"/>
</g>
<text transform="matrix(0.98 0 0 1 3041 194.104)" font-family="'ArialRoundedMTBold'" font-size="224">W</text>
<polyline fill="none" stroke="#000000" stroke-width="9" stroke-linecap="round" stroke-linejoin="round" stroke-miterlimit="10" points="
	2998.409,297.604 3034.409,434.604 3081.409,297.604 3133.409,434.604 3170.409,297.604 "/>
<g>
	
		<polyline fill="none" stroke="#FFFFFF" stroke-width="9" stroke-linecap="round" stroke-linejoin="round" stroke-miterlimit="10" points="
		2630.025,243.702 2659.206,351.506 2664.069,351.506 2698.923,243.702 2702.165,243.702 2737.019,351.506 2742.692,351.506 
		2769.441,243.702 	"/>
	
		<line fill="none" stroke="#FFFFFF" stroke-width="9" stroke-linecap="round" stroke-linejoin="round" stroke-miterlimit="10" x1="2611" y1="289.104" x2="2787" y2="289.104"/>
</g>
<polyline fill="none" stroke="#FFFFFF" stroke-width="9" stroke-linecap="round" stroke-linejoin="round" stroke-miterlimit="10" points="
	2315.401,668.705 2114.411,668.705 2106.912,677.704 2106.912,974.689 2121.911,994.188 2421.896,994.188 2435.396,983.689 
	2435.396,821.697 "/>
<polyline fill="none" stroke="#FFFFFF" stroke-width="9" stroke-linecap="round" stroke-linejoin="round" stroke-miterlimit="10" points="
	2189.917,816.573 2249.623,876.573 2435.917,700.573 "/>
<g>
	<g>
		
			<path fill="#FFFFFF" stroke="#F9F9F9" stroke-width="6" stroke-linecap="round" stroke-linejoin="round" stroke-miterlimit="10" d="
			M-1748.002,3199.105c-0.065,0-0.143,0-0.23-0.001h-218.594c-0.368,0-0.734-0.045-1.092-0.135
			c-41.38-10.345-56.694-37.153-62.254-57.821c-5.954-22.133-2.23-41.599-2.069-42.416c0.416-2.108,2.266-3.628,4.415-3.628h104.518
			l0.982-228.519c0.01-2.478,2.021-4.481,4.5-4.481h235c2.485,0,4.5,2.014,4.5,4.5v257.877c0.133,2.627,1.16,32.223-18.275,53.566
			c-12.041,13.223-29.215,20.306-51.044,21.053c-0.041,0.002-0.082,0.005-0.128,0.004
			C-1747.819,3199.104-1747.896,3199.105-1748.002,3199.105z M-1748.045,3190.104h0.142c19.29-0.67,34.311-6.765,44.647-18.116
			c17.394-19.102,15.954-46.839,15.938-47.116c-0.005-0.09-0.008-0.179-0.008-0.268v-253.5h-226.018l-0.965,224h88.482
			c1.259,0,2.459,0.526,3.312,1.453c0.852,0.926,1.277,2.166,1.173,3.42c-2.406,28.882,3.72,51.418,18.208,66.981
			C-1782.268,3189.373-1750.629,3190.085-1748.045,3190.104z M-1966.267,3190.104h180.076c-8.071-3.821-16.316-9.264-23.53-17.013
			c-15.439-16.585-22.469-39.777-20.923-68.987h-88.165c-0.012,0-0.023,0-0.035,0h-105.082c-0.721,6.339-1.524,20.174,2.527,35.008
			C-2014.204,3165.454-1995.656,3182.608-1966.267,3190.104z"/>
	</g>
	<g>
		<g>
			<path fill="#FFFFFF" stroke="#F9F9F9" stroke-miterlimit="10" d="M-1798.863,3060.805c-0.484,0-0.972-0.007-1.469-0.019
				l-0.253-0.015c-13.491-1.227-39.002-9.947-39.002-34.177c0-2.138,1.733-3.87,3.871-3.87c2.139,0,3.871,1.732,3.871,3.87
				c0,22.601,29.793,26.233,31.853,26.454c0.369,0.009,0.732,0.013,1.093,0.013c28.676,0,31.025-25.73,31.143-27.333
				c0.855-20.173-32.46-26.012-32.796-26.067c-35.252-5.781-35.084-31.517-34.947-34.448c0.082-9.079,3.025-16.345,8.752-21.596
				c10.479-9.605,26.515-8.729,28.021-8.624c31.579,1.226,34.366,28.622,34.39,28.898c0.188,2.13-1.384,4.008-3.514,4.196
				c-2.114,0.199-4-1.377-4.195-3.498c-0.087-0.887-2.357-20.937-27.042-21.863l-0.161-0.012
				c-0.132-0.008-14.041-0.964-22.293,6.635c-4.073,3.75-6.165,9.129-6.215,15.986l-0.018,0.338
				c-0.069,0.85-1.402,21.447,28.493,26.352c1.667,0.279,40.475,7.115,39.26,34.098l-0.004,0.088
				C-1760.054,3026.561-1762.792,3060.803-1798.863,3060.805z"/>
		</g>
		<g>
			<path fill="#FFFFFF" stroke="#F9F9F9" stroke-miterlimit="10" d="M-1799.792,3079.421c-2.138,0-3.871-1.732-3.871-3.871v-155.69
				c0-2.139,1.732-3.871,3.871-3.871c2.137,0,3.871,1.732,3.871,3.871v155.69
				C-1795.922,3077.689-1797.655,3079.421-1799.792,3079.421z"/>
		</g>
	</g>
</g>
<g>
	<g>
		<path fill="#FFFFFF" d="M329.765,3123.976c-0.065,0-0.143,0-0.23-0.001H110.94c-0.368,0-0.734-0.045-1.092-0.135
			c-41.38-10.345-56.694-37.153-62.254-57.821c-5.954-22.133-2.23-41.599-2.069-42.416c0.416-2.108,2.266-3.628,4.415-3.628h104.518
			l0.982-246.519c0.01-2.478,2.021-4.481,4.5-4.481h235c2.485,0,4.5,2.014,4.5,4.5v275.877c0.133,2.627,1.16,32.222-18.275,53.566
			c-12.041,13.223-29.215,20.306-51.044,21.053c-0.041,0.002-0.082,0.004-0.128,0.004S329.871,3123.976,329.765,3123.976z
			 M329.722,3114.975h0.142c19.29-0.67,34.311-6.765,44.647-18.116c17.394-19.102,15.954-46.839,15.938-47.116
			c-0.005-0.09-0.008-0.179-0.008-0.268v-271.5H164.423l-0.965,242h88.482c1.259,0,2.459,0.526,3.312,1.453
			c0.852,0.926,1.277,2.166,1.173,3.42c-2.406,28.882,3.72,51.417,18.208,66.981
			C295.499,3114.244,327.138,3114.957,329.722,3114.975z M111.5,3114.975h180.076c-8.071-3.821-16.316-9.264-23.53-17.013
			c-15.439-16.586-22.469-39.777-20.923-68.987h-88.165c-0.012,0-0.023,0-0.035,0H53.841c-0.721,6.339-1.524,20.174,2.527,35.008
			C63.563,3090.325,82.11,3107.479,111.5,3114.975z"/>
	</g>
	<g>
		<g>
			<path fill="#FFFFFF" d="M325.633,2971.959h-5.674c-1.952,0-3.682-1.259-4.282-3.116l-32.192-99.574l-32.192,99.574
				c-0.601,1.857-2.33,3.116-4.282,3.116h-4.863c-2.032,0-3.813-1.363-4.344-3.324l-29.181-107.805
				c-0.649-2.398,0.769-4.87,3.168-5.52c2.4-0.646,4.87,0.769,5.52,3.168l27.436,101.357l32.836-101.566
				c0.601-1.857,2.33-3.115,4.282-3.115h3.242c1.952,0,3.682,1.258,4.282,3.115l33.212,102.729l25.415-102.428
				c0.599-2.412,3.041-3.882,5.451-3.283c2.412,0.598,3.882,3.039,3.283,5.451L330,2968.542
				C329.502,2970.549,327.701,2971.959,325.633,2971.959z"/>
		</g>
		<g>
			<path fill="#FFFFFF" d="M369.94,2909.557h-176c-2.485,0-4.5-2.015-4.5-4.5s2.015-4.5,4.5-4.5h176c2.485,0,4.5,2.015,4.5,4.5
				S372.426,2909.557,369.94,2909.557z"/>
		</g>
	</g>
</g>
<g>
	<g>
		<path fill="#FFFFFF" stroke="#F9F9F9" stroke-width="6" stroke-miterlimit="10" d="M-2195.059,3205.105h-299.985
			c-1.397,0-2.715-0.648-3.566-1.756l-14.999-19.499c-0.605-0.787-0.934-1.752-0.934-2.744v-296.985
			c0-1.053,0.369-2.072,1.043-2.881l7.499-8.999c0.854-1.026,2.121-1.619,3.457-1.619h200.99c2.485,0,4.5,2.015,4.5,4.5
			s-2.015,4.5-4.5,4.5h-198.883l-5.106,6.128v293.826l12.715,16.529h296.226l10.543-8.2v-159.791c0-2.485,2.015-4.5,4.5-4.5
			s4.5,2.015,4.5,4.5v161.992c0,1.389-0.642,2.699-1.737,3.552l-13.499,10.499
			C-2193.086,3204.771-2194.058,3205.105-2195.059,3205.105z"/>
	</g>
	<g>
		<path fill="#FFFFFF" stroke="#F9F9F9" stroke-width="6" stroke-miterlimit="10" d="M-2367.332,3087.49
			c-1.156,0-2.312-0.443-3.189-1.326l-59.706-60c-1.753-1.762-1.746-4.61,0.016-6.363c1.762-1.754,4.611-1.746,6.363,0.016
			l56.613,56.892l183.106-172.989c1.808-1.707,4.654-1.624,6.362,0.181c1.706,1.807,1.625,4.655-0.181,6.362l-186.295,176
			C-2365.11,3087.082-2366.222,3087.49-2367.332,3087.49z"/>
	</g>
</g>
<polygon fill="#0C0B0C" points="-2381.457,1956.266 -2448,2071.523 -2514.543,1956.266 "/>
</svg>
