<?xml version="1.0" encoding="utf-8"?>
<!-- Generator: Adobe Illustrator 16.0.0, SVG Export Plug-In . SVG Version: 6.00 Build 0)  -->
<!DOCTYPE svg PUBLIC "-//W3C//DTD SVG 1.1//EN" "http://www.w3.org/Graphics/SVG/1.1/DTD/svg11.dtd">
<svg version="1.1" id="Layer_1" xmlns="http://www.w3.org/2000/svg" xmlns:xlink="http://www.w3.org/1999/xlink" x="0px" y="0px"
	 width="20px" height="20px" viewBox="0 0 20 20" enable-background="new 0 0 20 20" xml:space="preserve">
<g>
	<g>
		<g>
			<path fill="none" d="M-12.248,20.234c0-4.756-3.856-8.612-8.612-8.612c-4.755,0-8.611,3.856-8.611,8.612H-12.248z"/>
		</g>
		<g>
			<path fill="#FFFFFF" d="M-11.744,20.738h-18.231v-0.504c0-5.025,4.089-9.115,9.115-9.115c5.027,0,9.116,4.09,9.116,9.115V20.738z
				 M-28.952,19.73h16.185c-0.261-4.236-3.791-7.604-8.093-7.604C-25.161,12.127-28.691,15.494-28.952,19.73z"/>
		</g>
	</g>
	<g>
		<g>
			<circle fill="none" cx="-20.861" cy="7.001" r="4.568"/>
		</g>
		<g>
			<path fill="#FFFFFF" d="M-20.86,12.074c-2.796,0-5.071-2.276-5.071-5.073c0-2.796,2.275-5.071,5.071-5.071
				c2.798,0,5.073,2.275,5.073,5.071C-15.787,9.798-18.063,12.074-20.86,12.074z M-20.86,2.938c-2.241,0-4.063,1.823-4.063,4.063
				c0,2.241,1.823,4.065,4.063,4.065c2.242,0,4.064-1.824,4.064-4.065C-16.796,4.761-18.618,2.938-20.86,2.938z"/>
		</g>
	</g>
</g>
<g>
	<g>
		<path fill="none" d="M18.611,18.901c0-4.758-3.855-8.611-8.611-8.611c-4.756,0-8.612,3.854-8.612,8.611H18.611z"/>
		<path fill="#090909" d="M19.115,19.403H0.885v-0.502c0-5.025,4.089-9.115,9.116-9.115c5.025,0,9.115,4.09,9.115,9.115V19.403z
			 M1.908,18.399h16.184c-0.262-4.238-3.791-7.607-8.091-7.607C5.699,10.792,2.169,14.161,1.908,18.399z"/>
	</g>
	<g>
		<circle fill="none" cx="10" cy="5.669" r="4.568"/>
		<path fill="#090909" d="M10,10.739c-2.797,0-5.072-2.273-5.072-5.07c0-2.797,2.275-5.073,5.072-5.073
			c2.796,0,5.072,2.275,5.072,5.073C15.072,8.466,12.797,10.739,10,10.739z M10,1.604c-2.241,0-4.064,1.824-4.064,4.065
			c0,2.24,1.823,4.064,4.064,4.064c2.24,0,4.064-1.824,4.064-4.064C14.064,3.428,12.24,1.604,10,1.604z"/>
	</g>
</g>
</svg>
