<?xml version="1.0" encoding="utf-8"?>
<!-- Generator: Adobe Illustrator 16.0.0, SVG Export Plug-In . SVG Version: 6.00 Build 0)  -->
<!DOCTYPE svg PUBLIC "-//W3C//DTD SVG 1.1//EN" "http://www.w3.org/Graphics/SVG/1.1/DTD/svg11.dtd">
<svg version="1.1" id="Layer_1" xmlns="http://www.w3.org/2000/svg" xmlns:xlink="http://www.w3.org/1999/xlink" x="0px" y="0px"
	 width="20px" height="20px" viewBox="0 0 20 20" enable-background="new 0 0 20 20" xml:space="preserve">
<g>
	<g>
		<g>
			<path fill="none" d="M18.785,19.496c0-4.756-3.856-8.613-8.612-8.613c-4.755,0-8.611,3.857-8.611,8.613H18.785z"/>
		</g>
		<g>
			<path fill="#FFFFFF" d="M19.289,20H1.058v-0.504c0-5.025,4.089-9.116,9.115-9.116c5.027,0,9.116,4.091,9.116,9.116V20z
				 M2.081,18.992h16.185c-0.261-4.236-3.791-7.604-8.093-7.604C5.872,11.389,2.342,14.756,2.081,18.992z"/>
		</g>
	</g>
	<g>
		<g>
			<circle fill="none" cx="10.173" cy="6.263" r="4.568"/>
		</g>
		<g>
			<path fill="#FFFFFF" d="M10.173,11.336c-2.796,0-5.071-2.276-5.071-5.073c0-2.796,2.275-5.071,5.071-5.071
				c2.798,0,5.073,2.275,5.073,5.071C15.246,9.06,12.971,11.336,10.173,11.336z M10.173,2.199c-2.241,0-4.063,1.823-4.063,4.063
				c0,2.241,1.823,4.065,4.063,4.065c2.242,0,4.064-1.824,4.064-4.065C14.237,4.022,12.415,2.199,10.173,2.199z"/>
		</g>
	</g>
</g>
</svg>
